<svg width="28" height="30" viewBox="0 0 28 30" fill="none" xmlns="http://www.w3.org/2000/svg">
<path d="M14.0283 15.0156V0" stroke="white" stroke-width="2" stroke-miterlimit="10"/>
<path d="M10.5356 2.375L14.0285 5.90807" stroke="white" stroke-width="2" stroke-miterlimit="10"/>
<path d="M17.4919 2.37488L13.999 5.90795" stroke="white" stroke-width="2" stroke-miterlimit="10"/>
<path d="M14.0283 15.0154V30.0005" stroke="white" stroke-width="2" stroke-miterlimit="10"/>
<path d="M17.4919 27.6241L13.999 24.1215" stroke="white" stroke-width="2" stroke-miterlimit="10"/>
<path d="M10.5356 27.6253L14.0285 24.1227" stroke="white" stroke-width="2" stroke-miterlimit="10"/>
<path d="M14.0299 15.0121L1 7.61096" stroke="white" stroke-width="2" stroke-miterlimit="10"/>
<path d="M1.36426 11.8462L6.13278 10.5061" stroke="white" stroke-width="2" stroke-miterlimit="10"/>
<path d="M4.7666 5.75439L6.103 10.5362" stroke="white" stroke-width="2" stroke-miterlimit="10"/>
<path d="M14.0293 15.0155L27.0592 22.3862" stroke="white" stroke-width="2" stroke-miterlimit="10"/>
<path d="M26.6953 18.1827L21.9268 19.4924" stroke="white" stroke-width="2" stroke-miterlimit="10"/>
<path d="M23.2627 24.2435L21.9263 19.4617" stroke="white" stroke-width="2" stroke-miterlimit="10"/>
<path d="M14.0312 15.0136L27.0612 7.61243" stroke="white" stroke-width="2" stroke-miterlimit="10"/>
<path d="M26.6967 11.8467L21.9282 10.5066" stroke="white" stroke-width="2" stroke-miterlimit="10"/>
<path d="M23.2651 5.75439L21.9287 10.5362" stroke="white" stroke-width="2" stroke-miterlimit="10"/>
<path d="M14.0299 15.0155L1 22.3862" stroke="white" stroke-width="2" stroke-miterlimit="10"/>
<path d="M1.36328 18.1837L6.1318 19.4934" stroke="white" stroke-width="2" stroke-miterlimit="10"/>
<path d="M4.7666 24.2435L6.103 19.4617" stroke="white" stroke-width="2" stroke-miterlimit="10"/>
</svg>
