<svg display='none' xmlns="http://www.w3.org/2000/svg">

    <symbol id='leaf' viewBox="0 0 33 31" fill="none">
        <path d="M21.5895 29.3268C20.6234 29.6028 13.8608 31.535 7.78829 27.2566C2.40581 23.6683 -0.0784071 16.7677 1.43973 10.0051C8.20232 8.625 14.9649 11.1092 18.8293 16.3537C22.9696 21.8742 21.7275 28.2227 21.5895 29.3268Z" stroke="#535353" stroke-width="2" stroke-miterlimit="10"/>
        <path d="M21.5897 20.9077C21.1756 20.3556 18.0013 16.2153 19.1054 11.1088C20.0715 6.5544 24.0739 2.96609 29.0423 2C31.8026 6.14036 32.0786 11.3848 29.5944 15.3872C26.9721 19.6656 22.4177 20.7697 21.5897 20.9077Z" stroke="#535353" stroke-width="2" stroke-miterlimit="10"/>
        <path d="M11.1001 19.2511C14.5504 22.5634 18.1387 26.0137 21.589 29.326" stroke="#535353" stroke-width="2" stroke-miterlimit="10"/>
    </symbol>

</svg>